<svg width="10" height="10" viewBox="0 0 10 10" fill="none" xmlns="http://www.w3.org/2000/svg">
<path d="M3.40871 1.33636L6.64699 4.65863C6.70395 4.717 6.73584 4.79533 6.73584 4.87689C6.73584 4.95845 6.70395 5.03678 6.64699 5.09515L3.40871 8.41839C3.3823 8.44571 3.35066 8.46744 3.31568 8.48228C3.2807 8.49711 3.24309 8.50476 3.20509 8.50476C3.1671 8.50476 3.12949 8.49711 3.09451 8.48228C3.05953 8.46744 3.02789 8.44571 3.00148 8.41839C2.94714 8.3626 2.91673 8.28779 2.91673 8.2099C2.91673 8.13201 2.94714 8.0572 3.00148 8.0014L6.0464 4.8764L3.00246 1.75336C2.94811 1.69756 2.9177 1.62275 2.9177 1.54486C2.9177 1.46697 2.94811 1.39216 3.00246 1.33636C3.02887 1.30905 3.0605 1.28732 3.09548 1.27248C3.13046 1.25765 3.16807 1.25 3.20607 1.25C3.24407 1.25 3.28167 1.25765 3.31666 1.27248C3.35164 1.28732 3.38327 1.30905 3.40968 1.33636" fill="#111111"/>
</svg>
