<svg width="20" height="20" viewBox="0 0 20 20" fill="none" xmlns="http://www.w3.org/2000/svg">
<path d="M10 15C11.3261 15 12.5979 14.4732 13.5355 13.5355C14.4732 12.5979 15 11.3261 15 10C15 8.67392 14.4732 7.40215 13.5355 6.46447C12.5979 5.52678 11.3261 5 10 5C8.67392 5 7.40215 5.52678 6.46447 6.46447C5.52678 7.40215 5 8.67392 5 10C5 11.3261 5.52678 12.5979 6.46447 13.5355C7.40215 14.4732 8.67392 15 10 15ZM10 2C7.87827 2 5.84344 2.84285 4.34315 4.34315C2.84285 5.84344 2 7.87827 2 10C2 12.1217 2.84285 14.1566 4.34315 15.6569C5.84344 17.1571 7.87827 18 10 18C12.1217 18 14.1566 17.1571 15.6569 15.6569C17.1571 14.1566 18 12.1217 18 10C18 7.87827 17.1571 5.84344 15.6569 4.34315C14.1566 2.84285 12.1217 2 10 2ZM3 10C3 9.08075 3.18106 8.1705 3.53284 7.32122C3.88463 6.47194 4.40024 5.70026 5.05025 5.05025C5.70026 4.40024 6.47194 3.88463 7.32122 3.53284C8.1705 3.18106 9.08075 3 10 3C10.9193 3 11.8295 3.18106 12.6788 3.53284C13.5281 3.88463 14.2997 4.40024 14.9497 5.05025C15.5998 5.70026 16.1154 6.47194 16.4672 7.32122C16.8189 8.1705 17 9.08075 17 10C17 11.8565 16.2625 13.637 14.9497 14.9497C13.637 16.2625 11.8565 17 10 17C8.14348 17 6.36301 16.2625 5.05025 14.9497C3.7375 13.637 3 11.8565 3 10Z" fill="#6C9FFF"/>
</svg>
